<svg id="Livello_1" data-name="Livello 1" xmlns="http://www.w3.org/2000/svg" viewBox="0 0 395.8 107.87"><defs><style>.cls-1{fill:#d80027}.cls-2{fill:#fff}.cls-3,.cls-4{fill:none}.cls-4{stroke:#000;stroke-miterlimit:10}</style></defs><title>logo</title><path class="cls-1" d="M53.34 156.47c-16.67 4.2-28 19.49-28 36.68v.16a23.14 23.14 0 0 0 3.34 11.77l9.39 15.67 6.22 10.69 18.45 31.7 18.45-31.79 6.15-10.54 9.45-15.72a23.14 23.14 0 0 0 3.35-11.83v-.12c.05-23.72-22.05-42.9-46.8-36.67z" transform="translate(-25.38 -155.29)"/><circle class="cls-2" cx="37.41" cy="37.67" r="23.58"/><path class="cls-1" d="M59.06 201.24a3.2 3.2 0 0 1 .86-2.42 3.48 3.48 0 0 1 2.5-.82 3.38 3.38 0 0 1 2.45.84 3.7 3.7 0 0 1 0 4.77 3.32 3.32 0 0 1-2.44.87 3.42 3.42 0 0 1-2.48-.85 3.17 3.17 0 0 1-.89-2.39zm5.7-6.52H60.1l-1-18.62h6.59z" transform="translate(-25.38 -155.29)"/><path d="M144.17 172.82h14.54L143 220.9h-15.33L112 172.82h14.6l6.54 24.37a74.35 74.35 0 0 1 2.24 11.31q.23-2.3.92-5.75t1.22-5.43zm18.72 1.55a5.43 5.43 0 0 1 1.61-4.31q1.61-1.41 5.2-1.41t5.23 1.45a5.39 5.39 0 0 1 1.64 4.28q0 5.66-6.87 5.66t-6.81-5.67zm13.19 46.53h-12.86v-37.26h12.86zm21.83 0h-12.86v-51.17h12.86zm21.77 0h-12.86v-51.17h12.86zm33.22 0l-2.47-4.9h-.26a14.65 14.65 0 0 1-5.29 4.41 17.48 17.48 0 0 1-7 1.18 10.94 10.94 0 0 1-8.29-3.16q-3-3.16-3-8.88 0-6 4.14-8.86t12-3.27l6.21-.2v-.53q0-4.6-4.54-4.6-4.08 0-10.36 2.76l-3.72-8.48q6.51-3.35 16.44-3.35 7.17 0 11.1 3.55t3.93 9.93v24.4zm-9.54-8.42a5.79 5.79 0 0 0 4-1.48 4.91 4.91 0 0 0 1.66-3.85v-2.89l-3 .13q-6.35.23-6.35 4.67.04 3.42 3.69 3.42zM293.32 183a11.2 11.2 0 0 1 9.65 5.1q3.57 5.1 3.57 14.11t-3.6 14.22a11.54 11.54 0 0 1-10 5.15 13.9 13.9 0 0 1-3.68-.44 10.84 10.84 0 0 1-2.88-1.23 15.06 15.06 0 0 1-2.94-2.63h-.79l-2 3.65h-10v-51.2h12.86v11.58q0 2.07-.46 7.14h.46a11 11 0 0 1 9.9-5.46zm-4.7 10.1a4.4 4.4 0 0 0-3.95 1.87q-1.25 1.88-1.25 5.89v1.81q0 4.57 1.25 6.56a4.45 4.45 0 0 0 4.08 2 3.8 3.8 0 0 0 3.49-2.32 15.1 15.1 0 0 0 1.22-6.82q-.01-9.01-4.85-9.01zm49.55 27.8l-2.46-4.9h-.26a14.65 14.65 0 0 1-5.29 4.41 17.48 17.48 0 0 1-7 1.18 10.94 10.94 0 0 1-8.29-3.16q-3-3.16-3-8.88 0-6 4.14-8.86t12-3.27l6.22-.2v-.53q0-4.6-4.54-4.6-4.08 0-10.36 2.76l-3.72-8.48q6.51-3.35 16.44-3.35 7.17 0 11.1 3.55t3.93 9.93v24.4zm-9.54-8.42a5.8 5.8 0 0 0 4-1.48 4.91 4.91 0 0 0 1.66-3.85v-2.89l-3 .13q-6.35.23-6.35 4.67.06 3.42 3.7 3.42zm45.45-1.08a19.13 19.13 0 0 0 6.22-1.28v9.37a25.27 25.27 0 0 1-4.95 1.59 28 28 0 0 1-5.51.48q-6.48 0-9.34-3.17t-2.86-9.75v-15.36h-4.5V188l5.72-4 3.32-7.83h8.42v7.47h9.14v9.64h-9.14v14.5q0 3.62 3.48 3.62zm30.72 10.16q-9.31 0-14.45-4.95t-5.15-14.09q0-9.44 4.77-14.49t13.62-5q8.42 0 13 4.39t4.59 12.58v5.72h-23a6.38 6.38 0 0 0 2.29 4.9 9 9 0 0 0 5.87 1.78 28.36 28.36 0 0 0 6.23-.64 30.88 30.88 0 0 0 6.17-2.19v9.24a22.7 22.7 0 0 1-6.24 2.19 43.25 43.25 0 0 1-7.7.56zm-.8-29.83a5.35 5.35 0 0 0-3.8 1.43 6.71 6.71 0 0 0-1.79 4.49h11a6.42 6.42 0 0 0-1.53-4.31 5.05 5.05 0 0 0-3.88-1.61zm-278.16 50.79a4.8 4.8 0 0 1-1.84 4 7.62 7.62 0 0 1-4.89 1.46 15.29 15.29 0 0 1-5.62-.81v-1.39a14.21 14.21 0 0 0 5.51.92 6.17 6.17 0 0 0 3.9-1.13 3.58 3.58 0 0 0 1.44-3 3.42 3.42 0 0 0-.48-1.88 4.37 4.37 0 0 0-1.56-1.36 19.27 19.27 0 0 0-3.17-1.33 10.84 10.84 0 0 1-4.23-2.28 4.88 4.88 0 0 1 .59-6.92 7 7 0 0 1 4.51-1.4 13.23 13.23 0 0 1 5.29 1.07l-.51 1.2a12.34 12.34 0 0 0-4.76-1 5.58 5.58 0 0 0-3.53 1 3.35 3.35 0 0 0-1.31 2.79 3.65 3.65 0 0 0 .4 1.82 3.7 3.7 0 0 0 1.32 1.28 18 18 0 0 0 3.14 1.36 17 17 0 0 1 3.51 1.57 5 5 0 0 1 1.72 1.72 4.7 4.7 0 0 1 .57 2.31zm15.16 5.15h-10.94v-20H141V229h-9.53v7.56h9v1.28h-9v8.57H141zm12.36-10.07h7.37v9.12a16.53 16.53 0 0 1-6.52 1.23q-4.73 0-7.25-2.67t-2.52-7.56a11.36 11.36 0 0 1 1.25-5.4 8.76 8.76 0 0 1 3.58-3.64 10.9 10.9 0 0 1 5.35-1.28 13.79 13.79 0 0 1 5.86 1.2l-.56 1.26a12.67 12.67 0 0 0-5.38-1.2 8.23 8.23 0 0 0-6.27 2.44 9.16 9.16 0 0 0-2.32 6.58q0 4.51 2.2 6.79t6.46 2.28a12.52 12.52 0 0 0 4.69-.78v-7h-5.94zm26.91 10.07h-1.41L167 229.93h-.11q.16 3.17.16 4.78v13h-1.34v-20h1.39L179 245.4q-.12-2.46-.12-4.67v-13h1.35zm15.28-7.05h-8.12l-2.79 7.05h-1.54l8-20.06h.9l7.87 20.06h-1.57zm-7.61-1.26h7.15l-2.72-7.2q-.34-.85-.82-2.35a22 22 0 0 1-.81 2.38zm14.79 8.31v-20h1.39v18.67h9.53v1.31zm23.98-7.05h-8.12l-2.79 7.05h-1.54l8-20.06h.89l7.87 20.06h-1.57zm-7.61-1.26h7.15l-2.72-7.2q-.34-.85-.82-2.35a22 22 0 0 1-.81 2.38z" transform="translate(-25.38 -155.29)"/><path class="cls-3" d="M216.72 72.3h178.64v20.09H216.72zm115.07 0H165.9m165.89 20.08H165.9m47.64-20.12v20.2"/><path class="cls-4" d="M219.97 82.36h175.39"/></svg>